<mxfile host="app.diagrams.net" modified="2022-03-27T16:39:26.538Z" agent="5.0 (Macintosh; Intel Mac OS X 10_15_7) AppleWebKit/537.36 (KHTML, like Gecko) Chrome/99.0.4844.74 Safari/537.36 Edg/99.0.1150.52" etag="X9bJqMMEoLi5DR0HMMqg" version="15.8.6" type="github">
  <diagram name="Page-1" id="13e1069c-82ec-6db2-03f1-153e76fe0fe0">
    <mxGraphModel dx="1426" dy="1099" grid="0" gridSize="10" guides="1" tooltips="1" connect="1" arrows="1" fold="1" page="0" pageScale="1" pageWidth="1100" pageHeight="850" background="none" math="0" shadow="0">
      <root>
        <mxCell id="0" />
        <mxCell id="1" parent="0" />
        <mxCell id="AdmiY6lwoidtMY70Cuzc-8" style="edgeStyle=orthogonalEdgeStyle;orthogonalLoop=1;jettySize=auto;html=1;curved=1;fillColor=#d5e8d4;strokeColor=#82b366;" parent="1" source="AdmiY6lwoidtMY70Cuzc-1" target="AdmiY6lwoidtMY70Cuzc-2" edge="1">
          <mxGeometry relative="1" as="geometry" />
        </mxCell>
        <mxCell id="AdmiY6lwoidtMY70Cuzc-11" style="edgeStyle=orthogonalEdgeStyle;curved=1;orthogonalLoop=1;jettySize=auto;html=1;fillColor=#e1d5e7;strokeColor=#9673a6;" parent="1" source="AdmiY6lwoidtMY70Cuzc-1" target="AdmiY6lwoidtMY70Cuzc-4" edge="1">
          <mxGeometry relative="1" as="geometry">
            <Array as="points">
              <mxPoint x="710" y="220" />
            </Array>
          </mxGeometry>
        </mxCell>
        <mxCell id="AdmiY6lwoidtMY70Cuzc-12" style="edgeStyle=orthogonalEdgeStyle;curved=1;orthogonalLoop=1;jettySize=auto;html=1;entryX=0.25;entryY=0;entryDx=0;entryDy=0;fillColor=#e1d5e7;strokeColor=#9673a6;" parent="1" source="AdmiY6lwoidtMY70Cuzc-1" target="AdmiY6lwoidtMY70Cuzc-3" edge="1">
          <mxGeometry relative="1" as="geometry">
            <Array as="points">
              <mxPoint x="250" y="220" />
            </Array>
          </mxGeometry>
        </mxCell>
        <mxCell id="AdmiY6lwoidtMY70Cuzc-1" value="" style="rounded=0;whiteSpace=wrap;html=1;fillColor=#d5e8d4;strokeColor=#82b366;" parent="1" vertex="1">
          <mxGeometry x="430" y="170" width="120" height="60" as="geometry" />
        </mxCell>
        <mxCell id="AdmiY6lwoidtMY70Cuzc-2" value="" style="rounded=0;whiteSpace=wrap;html=1;fillColor=#dae8fc;strokeColor=#6c8ebf;" parent="1" vertex="1">
          <mxGeometry x="430" y="350" width="120" height="60" as="geometry" />
        </mxCell>
        <mxCell id="AdmiY6lwoidtMY70Cuzc-3" value="Email" style="rounded=0;whiteSpace=wrap;html=1;fillColor=#f5f5f5;fontColor=#333333;strokeColor=#666666;" parent="1" vertex="1">
          <mxGeometry x="220" y="350" width="120" height="60" as="geometry" />
        </mxCell>
        <mxCell id="AdmiY6lwoidtMY70Cuzc-4" value="Inventory" style="rounded=0;whiteSpace=wrap;html=1;fillColor=#f5f5f5;strokeColor=#666666;fontColor=#333333;" parent="1" vertex="1">
          <mxGeometry x="650" y="350" width="120" height="60" as="geometry" />
        </mxCell>
        <mxCell id="AdmiY6lwoidtMY70Cuzc-9" style="edgeStyle=orthogonalEdgeStyle;orthogonalLoop=1;jettySize=auto;html=1;curved=1;fillColor=#f8cecc;strokeColor=#b85450;" parent="1" source="AdmiY6lwoidtMY70Cuzc-5" target="AdmiY6lwoidtMY70Cuzc-4" edge="1">
          <mxGeometry relative="1" as="geometry">
            <Array as="points">
              <mxPoint x="270" y="280" />
              <mxPoint x="710" y="280" />
            </Array>
          </mxGeometry>
        </mxCell>
        <mxCell id="AdmiY6lwoidtMY70Cuzc-5" value="" style="rounded=0;whiteSpace=wrap;html=1;fillColor=#fff2cc;strokeColor=#d6b656;" parent="1" vertex="1">
          <mxGeometry x="217" y="165" width="120" height="60" as="geometry" />
        </mxCell>
        <mxCell id="AdmiY6lwoidtMY70Cuzc-10" style="edgeStyle=orthogonalEdgeStyle;curved=1;orthogonalLoop=1;jettySize=auto;html=1;entryX=0.5;entryY=0;entryDx=0;entryDy=0;fillColor=#f8cecc;strokeColor=#b85450;" parent="1" source="AdmiY6lwoidtMY70Cuzc-6" target="AdmiY6lwoidtMY70Cuzc-3" edge="1">
          <mxGeometry relative="1" as="geometry">
            <Array as="points">
              <mxPoint x="720" y="280" />
              <mxPoint x="280" y="280" />
            </Array>
          </mxGeometry>
        </mxCell>
        <mxCell id="AdmiY6lwoidtMY70Cuzc-6" value="" style="rounded=0;whiteSpace=wrap;html=1;fillColor=#fff2cc;strokeColor=#d6b656;" parent="1" vertex="1">
          <mxGeometry x="650" y="168" width="120" height="60" as="geometry" />
        </mxCell>
        <mxCell id="AdmiY6lwoidtMY70Cuzc-13" value="" style="shape=image;html=1;verticalAlign=top;verticalLabelPosition=bottom;labelBackgroundColor=#ffffff;imageAspect=0;aspect=fixed;image=https://cdn4.iconfinder.com/data/icons/evil-icons-user-interface/64/cart-128.png" parent="1" vertex="1">
          <mxGeometry x="434.75" y="185" width="30" height="30" as="geometry" />
        </mxCell>
        <mxCell id="AdmiY6lwoidtMY70Cuzc-14" value="" style="shape=image;html=1;verticalAlign=top;verticalLabelPosition=bottom;labelBackgroundColor=#ffffff;imageAspect=0;aspect=fixed;image=https://cdn4.iconfinder.com/data/icons/public-transportation-11/128/Public_Transportation_EXPANDED-04-128.png" parent="1" vertex="1">
          <mxGeometry x="434.75" y="360.25" width="39.5" height="39.5" as="geometry" />
        </mxCell>
        <mxCell id="AdmiY6lwoidtMY70Cuzc-15" value="" style="sketch=0;outlineConnect=0;fontColor=#232F3E;gradientColor=none;fillColor=#232F3D;strokeColor=none;dashed=0;verticalLabelPosition=bottom;verticalAlign=top;align=center;html=1;fontSize=12;fontStyle=0;aspect=fixed;pointerEvents=1;shape=mxgraph.aws4.email_2;" parent="1" vertex="1">
          <mxGeometry x="230" y="374.29" width="18.2" height="11.43" as="geometry" />
        </mxCell>
        <mxCell id="AdmiY6lwoidtMY70Cuzc-17" value="" style="outlineConnect=0;dashed=0;verticalLabelPosition=bottom;verticalAlign=top;align=center;html=1;shape=mxgraph.aws3.inventory;fillColor=#759C3E;gradientColor=none;" parent="1" vertex="1">
          <mxGeometry x="660" y="370" width="20" height="20" as="geometry" />
        </mxCell>
        <mxCell id="LzXivdTi8ObW2yKyZJNP-1" value="Shipment" style="text;html=1;strokeColor=none;fillColor=none;align=center;verticalAlign=middle;whiteSpace=wrap;rounded=0;" vertex="1" parent="1">
          <mxGeometry x="474.25" y="365" width="60" height="30" as="geometry" />
        </mxCell>
        <mxCell id="LzXivdTi8ObW2yKyZJNP-2" value="Checkout" style="text;html=1;strokeColor=none;fillColor=none;align=center;verticalAlign=middle;whiteSpace=wrap;rounded=0;" vertex="1" parent="1">
          <mxGeometry x="474.25" y="185" width="60" height="30" as="geometry" />
        </mxCell>
        <mxCell id="LzXivdTi8ObW2yKyZJNP-3" style="edgeStyle=orthogonalEdgeStyle;orthogonalLoop=1;jettySize=auto;html=1;curved=1;fillColor=#d5e8d4;strokeColor=#82b366;" edge="1" source="LzXivdTi8ObW2yKyZJNP-6" target="LzXivdTi8ObW2yKyZJNP-7" parent="1">
          <mxGeometry relative="1" as="geometry" />
        </mxCell>
        <mxCell id="LzXivdTi8ObW2yKyZJNP-4" style="edgeStyle=orthogonalEdgeStyle;curved=1;orthogonalLoop=1;jettySize=auto;html=1;fillColor=#e1d5e7;strokeColor=#9673a6;" edge="1" source="LzXivdTi8ObW2yKyZJNP-6" target="LzXivdTi8ObW2yKyZJNP-9" parent="1">
          <mxGeometry relative="1" as="geometry">
            <Array as="points">
              <mxPoint x="712" y="531" />
            </Array>
          </mxGeometry>
        </mxCell>
        <mxCell id="LzXivdTi8ObW2yKyZJNP-5" style="edgeStyle=orthogonalEdgeStyle;curved=1;orthogonalLoop=1;jettySize=auto;html=1;entryX=0.25;entryY=0;entryDx=0;entryDy=0;fillColor=#e1d5e7;strokeColor=#9673a6;" edge="1" source="LzXivdTi8ObW2yKyZJNP-6" target="LzXivdTi8ObW2yKyZJNP-8" parent="1">
          <mxGeometry relative="1" as="geometry">
            <Array as="points">
              <mxPoint x="252" y="531" />
            </Array>
          </mxGeometry>
        </mxCell>
        <mxCell id="LzXivdTi8ObW2yKyZJNP-6" value="" style="rounded=0;whiteSpace=wrap;html=1;fillColor=#d5e8d4;strokeColor=#82b366;" vertex="1" parent="1">
          <mxGeometry x="432" y="481" width="120" height="60" as="geometry" />
        </mxCell>
        <mxCell id="LzXivdTi8ObW2yKyZJNP-7" value="" style="rounded=0;whiteSpace=wrap;html=1;fillColor=#dae8fc;strokeColor=#6c8ebf;" vertex="1" parent="1">
          <mxGeometry x="432" y="661" width="120" height="60" as="geometry" />
        </mxCell>
        <mxCell id="LzXivdTi8ObW2yKyZJNP-8" value="Email" style="rounded=0;whiteSpace=wrap;html=1;fillColor=#f5f5f5;fontColor=#333333;strokeColor=#666666;" vertex="1" parent="1">
          <mxGeometry x="222" y="661" width="120" height="60" as="geometry" />
        </mxCell>
        <mxCell id="LzXivdTi8ObW2yKyZJNP-9" value="Inventory" style="rounded=0;whiteSpace=wrap;html=1;fillColor=#f5f5f5;strokeColor=#666666;fontColor=#333333;" vertex="1" parent="1">
          <mxGeometry x="652" y="661" width="120" height="60" as="geometry" />
        </mxCell>
        <mxCell id="LzXivdTi8ObW2yKyZJNP-14" value="" style="shape=image;html=1;verticalAlign=top;verticalLabelPosition=bottom;labelBackgroundColor=#ffffff;imageAspect=0;aspect=fixed;image=https://cdn4.iconfinder.com/data/icons/evil-icons-user-interface/64/cart-128.png" vertex="1" parent="1">
          <mxGeometry x="436.75" y="496" width="30" height="30" as="geometry" />
        </mxCell>
        <mxCell id="LzXivdTi8ObW2yKyZJNP-15" value="" style="shape=image;html=1;verticalAlign=top;verticalLabelPosition=bottom;labelBackgroundColor=#ffffff;imageAspect=0;aspect=fixed;image=https://cdn4.iconfinder.com/data/icons/public-transportation-11/128/Public_Transportation_EXPANDED-04-128.png" vertex="1" parent="1">
          <mxGeometry x="436.75" y="671.25" width="39.5" height="39.5" as="geometry" />
        </mxCell>
        <mxCell id="LzXivdTi8ObW2yKyZJNP-16" value="" style="sketch=0;outlineConnect=0;fontColor=#232F3E;gradientColor=none;fillColor=#232F3D;strokeColor=none;dashed=0;verticalLabelPosition=bottom;verticalAlign=top;align=center;html=1;fontSize=12;fontStyle=0;aspect=fixed;pointerEvents=1;shape=mxgraph.aws4.email_2;" vertex="1" parent="1">
          <mxGeometry x="232" y="685.29" width="18.2" height="11.43" as="geometry" />
        </mxCell>
        <mxCell id="LzXivdTi8ObW2yKyZJNP-17" value="" style="outlineConnect=0;dashed=0;verticalLabelPosition=bottom;verticalAlign=top;align=center;html=1;shape=mxgraph.aws3.inventory;fillColor=#759C3E;gradientColor=none;" vertex="1" parent="1">
          <mxGeometry x="662" y="681" width="20" height="20" as="geometry" />
        </mxCell>
        <mxCell id="LzXivdTi8ObW2yKyZJNP-18" value="Shipment" style="text;html=1;strokeColor=none;fillColor=none;align=center;verticalAlign=middle;whiteSpace=wrap;rounded=0;" vertex="1" parent="1">
          <mxGeometry x="476.25" y="676" width="60" height="30" as="geometry" />
        </mxCell>
        <mxCell id="LzXivdTi8ObW2yKyZJNP-19" value="Checkout" style="text;html=1;strokeColor=none;fillColor=none;align=center;verticalAlign=middle;whiteSpace=wrap;rounded=0;" vertex="1" parent="1">
          <mxGeometry x="476.25" y="496" width="60" height="30" as="geometry" />
        </mxCell>
        <mxCell id="LzXivdTi8ObW2yKyZJNP-20" value="" style="rounded=0;whiteSpace=wrap;html=1;fillColor=#fff2cc;strokeColor=#d6b656;" vertex="1" parent="1">
          <mxGeometry x="84" y="165" width="120" height="60" as="geometry" />
        </mxCell>
        <mxCell id="LzXivdTi8ObW2yKyZJNP-21" value="" style="rounded=0;whiteSpace=wrap;html=1;fillColor=#fff2cc;strokeColor=#d6b656;" vertex="1" parent="1">
          <mxGeometry x="788" y="168" width="120" height="60" as="geometry" />
        </mxCell>
        <mxCell id="LzXivdTi8ObW2yKyZJNP-23" value="" style="rounded=0;whiteSpace=wrap;html=1;fillColor=#f5f5f5;fontColor=#333333;strokeColor=#666666;" vertex="1" parent="1">
          <mxGeometry x="86" y="350" width="120" height="60" as="geometry" />
        </mxCell>
        <mxCell id="LzXivdTi8ObW2yKyZJNP-24" value="" style="rounded=0;whiteSpace=wrap;html=1;fillColor=#f5f5f5;fontColor=#333333;strokeColor=#666666;" vertex="1" parent="1">
          <mxGeometry x="790" y="350" width="120" height="60" as="geometry" />
        </mxCell>
        <mxCell id="LzXivdTi8ObW2yKyZJNP-29" value="" style="rounded=0;whiteSpace=wrap;html=1;fillColor=#d5e8d4;strokeColor=#82b366;" vertex="1" parent="1">
          <mxGeometry x="446" y="-237" width="120" height="60" as="geometry" />
        </mxCell>
        <mxCell id="LzXivdTi8ObW2yKyZJNP-60" style="edgeStyle=orthogonalEdgeStyle;rounded=0;orthogonalLoop=1;jettySize=auto;html=1;entryX=0.5;entryY=1;entryDx=0;entryDy=0;" edge="1" parent="1" source="LzXivdTi8ObW2yKyZJNP-30" target="LzXivdTi8ObW2yKyZJNP-51">
          <mxGeometry relative="1" as="geometry" />
        </mxCell>
        <mxCell id="LzXivdTi8ObW2yKyZJNP-30" value="" style="rounded=0;whiteSpace=wrap;html=1;fillColor=#dae8fc;strokeColor=#6c8ebf;" vertex="1" parent="1">
          <mxGeometry x="450.75" y="26" width="120" height="60" as="geometry" />
        </mxCell>
        <mxCell id="LzXivdTi8ObW2yKyZJNP-61" style="edgeStyle=orthogonalEdgeStyle;rounded=0;orthogonalLoop=1;jettySize=auto;html=1;entryX=0.242;entryY=0.983;entryDx=0;entryDy=0;entryPerimeter=0;" edge="1" parent="1" source="LzXivdTi8ObW2yKyZJNP-31" target="LzXivdTi8ObW2yKyZJNP-51">
          <mxGeometry relative="1" as="geometry" />
        </mxCell>
        <mxCell id="LzXivdTi8ObW2yKyZJNP-31" value="Email" style="rounded=0;whiteSpace=wrap;html=1;fillColor=#f5f5f5;fontColor=#333333;strokeColor=#666666;" vertex="1" parent="1">
          <mxGeometry x="238" y="26" width="120" height="60" as="geometry" />
        </mxCell>
        <mxCell id="LzXivdTi8ObW2yKyZJNP-62" style="edgeStyle=orthogonalEdgeStyle;rounded=0;orthogonalLoop=1;jettySize=auto;html=1;entryX=0.761;entryY=1.017;entryDx=0;entryDy=0;entryPerimeter=0;" edge="1" parent="1" source="LzXivdTi8ObW2yKyZJNP-32" target="LzXivdTi8ObW2yKyZJNP-51">
          <mxGeometry relative="1" as="geometry" />
        </mxCell>
        <mxCell id="LzXivdTi8ObW2yKyZJNP-32" value="Inventory" style="rounded=0;whiteSpace=wrap;html=1;fillColor=#f5f5f5;strokeColor=#666666;fontColor=#333333;" vertex="1" parent="1">
          <mxGeometry x="668" y="26" width="120" height="60" as="geometry" />
        </mxCell>
        <mxCell id="LzXivdTi8ObW2yKyZJNP-55" style="edgeStyle=orthogonalEdgeStyle;rounded=0;orthogonalLoop=1;jettySize=auto;html=1;entryX=0.236;entryY=0;entryDx=0;entryDy=0;entryPerimeter=0;" edge="1" parent="1" source="LzXivdTi8ObW2yKyZJNP-34" target="LzXivdTi8ObW2yKyZJNP-51">
          <mxGeometry relative="1" as="geometry" />
        </mxCell>
        <mxCell id="LzXivdTi8ObW2yKyZJNP-34" value="" style="rounded=0;whiteSpace=wrap;html=1;fillColor=#fff2cc;strokeColor=#d6b656;" vertex="1" parent="1">
          <mxGeometry x="233" y="-242" width="120" height="60" as="geometry" />
        </mxCell>
        <mxCell id="LzXivdTi8ObW2yKyZJNP-54" style="edgeStyle=orthogonalEdgeStyle;rounded=0;orthogonalLoop=1;jettySize=auto;html=1;entryX=0.758;entryY=0.117;entryDx=0;entryDy=0;entryPerimeter=0;" edge="1" parent="1" source="LzXivdTi8ObW2yKyZJNP-36" target="LzXivdTi8ObW2yKyZJNP-51">
          <mxGeometry relative="1" as="geometry" />
        </mxCell>
        <mxCell id="LzXivdTi8ObW2yKyZJNP-36" value="" style="rounded=0;whiteSpace=wrap;html=1;fillColor=#fff2cc;strokeColor=#d6b656;" vertex="1" parent="1">
          <mxGeometry x="666" y="-239" width="120" height="60" as="geometry" />
        </mxCell>
        <mxCell id="LzXivdTi8ObW2yKyZJNP-37" value="" style="shape=image;html=1;verticalAlign=top;verticalLabelPosition=bottom;labelBackgroundColor=#ffffff;imageAspect=0;aspect=fixed;image=https://cdn4.iconfinder.com/data/icons/evil-icons-user-interface/64/cart-128.png" vertex="1" parent="1">
          <mxGeometry x="450.75" y="-222" width="30" height="30" as="geometry" />
        </mxCell>
        <mxCell id="LzXivdTi8ObW2yKyZJNP-38" value="" style="shape=image;html=1;verticalAlign=top;verticalLabelPosition=bottom;labelBackgroundColor=#ffffff;imageAspect=0;aspect=fixed;image=https://cdn4.iconfinder.com/data/icons/public-transportation-11/128/Public_Transportation_EXPANDED-04-128.png" vertex="1" parent="1">
          <mxGeometry x="452.75" y="36.25" width="39.5" height="39.5" as="geometry" />
        </mxCell>
        <mxCell id="LzXivdTi8ObW2yKyZJNP-39" value="" style="sketch=0;outlineConnect=0;fontColor=#232F3E;gradientColor=none;fillColor=#232F3D;strokeColor=none;dashed=0;verticalLabelPosition=bottom;verticalAlign=top;align=center;html=1;fontSize=12;fontStyle=0;aspect=fixed;pointerEvents=1;shape=mxgraph.aws4.email_2;" vertex="1" parent="1">
          <mxGeometry x="248" y="50.29000000000002" width="18.2" height="11.43" as="geometry" />
        </mxCell>
        <mxCell id="LzXivdTi8ObW2yKyZJNP-40" value="" style="outlineConnect=0;dashed=0;verticalLabelPosition=bottom;verticalAlign=top;align=center;html=1;shape=mxgraph.aws3.inventory;fillColor=#759C3E;gradientColor=none;" vertex="1" parent="1">
          <mxGeometry x="678" y="46" width="20" height="20" as="geometry" />
        </mxCell>
        <mxCell id="LzXivdTi8ObW2yKyZJNP-41" value="Shipment" style="text;html=1;strokeColor=none;fillColor=none;align=center;verticalAlign=middle;whiteSpace=wrap;rounded=0;" vertex="1" parent="1">
          <mxGeometry x="492.25" y="41" width="60" height="30" as="geometry" />
        </mxCell>
        <mxCell id="LzXivdTi8ObW2yKyZJNP-52" style="edgeStyle=orthogonalEdgeStyle;rounded=0;orthogonalLoop=1;jettySize=auto;html=1;" edge="1" parent="1" target="LzXivdTi8ObW2yKyZJNP-51">
          <mxGeometry relative="1" as="geometry">
            <mxPoint x="520" y="-177" as="sourcePoint" />
            <Array as="points">
              <mxPoint x="520" y="-135" />
              <mxPoint x="520" y="-135" />
            </Array>
          </mxGeometry>
        </mxCell>
        <mxCell id="LzXivdTi8ObW2yKyZJNP-42" value="Checkout" style="text;html=1;strokeColor=none;fillColor=none;align=center;verticalAlign=middle;whiteSpace=wrap;rounded=0;" vertex="1" parent="1">
          <mxGeometry x="490.25" y="-222" width="60" height="30" as="geometry" />
        </mxCell>
        <mxCell id="LzXivdTi8ObW2yKyZJNP-56" style="edgeStyle=orthogonalEdgeStyle;rounded=0;orthogonalLoop=1;jettySize=auto;html=1;entryX=0.077;entryY=0.033;entryDx=0;entryDy=0;entryPerimeter=0;" edge="1" parent="1" source="LzXivdTi8ObW2yKyZJNP-43" target="LzXivdTi8ObW2yKyZJNP-51">
          <mxGeometry relative="1" as="geometry" />
        </mxCell>
        <mxCell id="LzXivdTi8ObW2yKyZJNP-43" value="" style="rounded=0;whiteSpace=wrap;html=1;fillColor=#fff2cc;strokeColor=#d6b656;" vertex="1" parent="1">
          <mxGeometry x="100" y="-242" width="120" height="60" as="geometry" />
        </mxCell>
        <mxCell id="LzXivdTi8ObW2yKyZJNP-58" style="edgeStyle=orthogonalEdgeStyle;rounded=0;orthogonalLoop=1;jettySize=auto;html=1;entryX=0.925;entryY=-0.033;entryDx=0;entryDy=0;entryPerimeter=0;" edge="1" parent="1" source="LzXivdTi8ObW2yKyZJNP-44" target="LzXivdTi8ObW2yKyZJNP-51">
          <mxGeometry relative="1" as="geometry" />
        </mxCell>
        <mxCell id="LzXivdTi8ObW2yKyZJNP-44" value="" style="rounded=0;whiteSpace=wrap;html=1;fillColor=#fff2cc;strokeColor=#d6b656;" vertex="1" parent="1">
          <mxGeometry x="804" y="-239" width="120" height="60" as="geometry" />
        </mxCell>
        <mxCell id="LzXivdTi8ObW2yKyZJNP-45" value="" style="rounded=0;whiteSpace=wrap;html=1;fillColor=#f5f5f5;fontColor=#333333;strokeColor=#666666;" vertex="1" parent="1">
          <mxGeometry x="104" y="26" width="120" height="60" as="geometry" />
        </mxCell>
        <mxCell id="LzXivdTi8ObW2yKyZJNP-46" value="" style="rounded=0;whiteSpace=wrap;html=1;fillColor=#f5f5f5;fontColor=#333333;strokeColor=#666666;" vertex="1" parent="1">
          <mxGeometry x="808" y="26" width="120" height="60" as="geometry" />
        </mxCell>
        <mxCell id="LzXivdTi8ObW2yKyZJNP-51" value="Message Broker" style="rounded=1;whiteSpace=wrap;html=1;fillColor=#1ba1e2;fontColor=#ffffff;strokeColor=#006EAF;sketch=0;shadow=1;glass=0;" vertex="1" parent="1">
          <mxGeometry x="96" y="-122" width="831" height="60" as="geometry" />
        </mxCell>
      </root>
    </mxGraphModel>
  </diagram>
</mxfile>
